<mxfile host="app.diagrams.net" agent="Mozilla/5.0 (Macintosh; Intel Mac OS X 10_15_7) AppleWebKit/537.36 (KHTML, like Gecko) Chrome/133.0.0.0 Safari/537.36" version="26.0.11">
  <diagram name="Page-1" id="G9ifeTFGzU589j72VpIW">
    <mxGraphModel dx="2008" dy="774" grid="1" gridSize="10" guides="1" tooltips="1" connect="1" arrows="1" fold="1" page="1" pageScale="1" pageWidth="850" pageHeight="1100" math="0" shadow="0">
      <root>
        <mxCell id="0" />
        <mxCell id="1" parent="0" />
        <mxCell id="bLYFY1r-CMGZMfWj51zT-1" value="User" style="rounded=0;whiteSpace=wrap;html=1;fillColor=#ffe6cc;strokeColor=#d79b00;" vertex="1" parent="1">
          <mxGeometry x="85" y="250" width="110" height="110" as="geometry" />
        </mxCell>
        <mxCell id="bLYFY1r-CMGZMfWj51zT-2" value="Habit" style="rounded=0;whiteSpace=wrap;html=1;fillColor=#ffe6cc;strokeColor=#d79b00;" vertex="1" parent="1">
          <mxGeometry x="655" y="310" width="110" height="110" as="geometry" />
        </mxCell>
        <mxCell id="bLYFY1r-CMGZMfWj51zT-4" value="HabitName" style="ellipse;whiteSpace=wrap;html=1;aspect=fixed;fillColor=#dae8fc;strokeColor=#6c8ebf;" vertex="1" parent="1">
          <mxGeometry x="625" y="160" width="70" height="70" as="geometry" />
        </mxCell>
        <mxCell id="bLYFY1r-CMGZMfWj51zT-5" value="Description" style="ellipse;whiteSpace=wrap;html=1;aspect=fixed;fillColor=#dae8fc;strokeColor=#6c8ebf;" vertex="1" parent="1">
          <mxGeometry x="715" y="170" width="70" height="70" as="geometry" />
        </mxCell>
        <mxCell id="bLYFY1r-CMGZMfWj51zT-7" value="Habit_Log" style="rounded=0;whiteSpace=wrap;html=1;fillColor=#ffe6cc;strokeColor=#d79b00;" vertex="1" parent="1">
          <mxGeometry x="315" y="460" width="110" height="110" as="geometry" />
        </mxCell>
        <mxCell id="bLYFY1r-CMGZMfWj51zT-8" value="TimeOfDay" style="ellipse;whiteSpace=wrap;html=1;aspect=fixed;fillColor=#dae8fc;strokeColor=#6c8ebf;" vertex="1" parent="1">
          <mxGeometry x="785" y="220" width="70" height="70" as="geometry" />
        </mxCell>
        <mxCell id="bLYFY1r-CMGZMfWj51zT-9" value="DaysOfWeek" style="ellipse;whiteSpace=wrap;html=1;aspect=fixed;fillColor=#dae8fc;strokeColor=#6c8ebf;" vertex="1" parent="1">
          <mxGeometry x="825" y="300" width="70" height="70" as="geometry" />
        </mxCell>
        <mxCell id="bLYFY1r-CMGZMfWj51zT-10" value="Private" style="ellipse;whiteSpace=wrap;html=1;aspect=fixed;fillColor=#dae8fc;strokeColor=#6c8ebf;" vertex="1" parent="1">
          <mxGeometry x="815" y="390" width="70" height="70" as="geometry" />
        </mxCell>
        <mxCell id="bLYFY1r-CMGZMfWj51zT-11" value="GoalValue" style="ellipse;whiteSpace=wrap;html=1;aspect=fixed;fillColor=#dae8fc;strokeColor=#6c8ebf;" vertex="1" parent="1">
          <mxGeometry x="765" y="460" width="70" height="70" as="geometry" />
        </mxCell>
        <mxCell id="bLYFY1r-CMGZMfWj51zT-12" value="GoalUnits" style="ellipse;whiteSpace=wrap;html=1;aspect=fixed;fillColor=#dae8fc;strokeColor=#6c8ebf;" vertex="1" parent="1">
          <mxGeometry x="675" y="490" width="70" height="70" as="geometry" />
        </mxCell>
        <mxCell id="bLYFY1r-CMGZMfWj51zT-13" value="" style="endArrow=none;html=1;rounded=0;exitX=0.5;exitY=1;exitDx=0;exitDy=0;entryX=0.25;entryY=0;entryDx=0;entryDy=0;" edge="1" parent="1" source="bLYFY1r-CMGZMfWj51zT-4" target="bLYFY1r-CMGZMfWj51zT-2">
          <mxGeometry relative="1" as="geometry">
            <mxPoint x="595" y="420" as="sourcePoint" />
            <mxPoint x="755" y="420" as="targetPoint" />
          </mxGeometry>
        </mxCell>
        <mxCell id="bLYFY1r-CMGZMfWj51zT-14" value="" style="endArrow=none;html=1;rounded=0;exitX=0.251;exitY=0.959;exitDx=0;exitDy=0;entryX=0.5;entryY=0;entryDx=0;entryDy=0;exitPerimeter=0;" edge="1" parent="1" source="bLYFY1r-CMGZMfWj51zT-5" target="bLYFY1r-CMGZMfWj51zT-2">
          <mxGeometry relative="1" as="geometry">
            <mxPoint x="675" y="250" as="sourcePoint" />
            <mxPoint x="693" y="320" as="targetPoint" />
          </mxGeometry>
        </mxCell>
        <mxCell id="bLYFY1r-CMGZMfWj51zT-15" value="" style="endArrow=none;html=1;rounded=0;exitX=0.101;exitY=0.809;exitDx=0;exitDy=0;exitPerimeter=0;" edge="1" parent="1" source="bLYFY1r-CMGZMfWj51zT-8">
          <mxGeometry relative="1" as="geometry">
            <mxPoint x="745" y="257" as="sourcePoint" />
            <mxPoint x="755" y="310" as="targetPoint" />
          </mxGeometry>
        </mxCell>
        <mxCell id="bLYFY1r-CMGZMfWj51zT-16" value="" style="endArrow=none;html=1;rounded=0;exitX=0.072;exitY=0.845;exitDx=0;exitDy=0;entryX=1.013;entryY=0.342;entryDx=0;entryDy=0;exitPerimeter=0;entryPerimeter=0;" edge="1" parent="1" target="bLYFY1r-CMGZMfWj51zT-2">
          <mxGeometry relative="1" as="geometry">
            <mxPoint x="825" y="340" as="sourcePoint" />
            <mxPoint x="780" y="363" as="targetPoint" />
          </mxGeometry>
        </mxCell>
        <mxCell id="bLYFY1r-CMGZMfWj51zT-17" value="" style="endArrow=none;html=1;rounded=0;entryX=1.013;entryY=0.342;entryDx=0;entryDy=0;entryPerimeter=0;exitX=0.077;exitY=0.263;exitDx=0;exitDy=0;exitPerimeter=0;" edge="1" parent="1" source="bLYFY1r-CMGZMfWj51zT-10">
          <mxGeometry relative="1" as="geometry">
            <mxPoint x="815" y="410" as="sourcePoint" />
            <mxPoint x="765" y="388" as="targetPoint" />
          </mxGeometry>
        </mxCell>
        <mxCell id="bLYFY1r-CMGZMfWj51zT-18" value="" style="endArrow=none;html=1;rounded=0;entryX=0.907;entryY=1.01;entryDx=0;entryDy=0;entryPerimeter=0;" edge="1" parent="1" source="bLYFY1r-CMGZMfWj51zT-11" target="bLYFY1r-CMGZMfWj51zT-2">
          <mxGeometry relative="1" as="geometry">
            <mxPoint x="831" y="421" as="sourcePoint" />
            <mxPoint x="775" y="398" as="targetPoint" />
          </mxGeometry>
        </mxCell>
        <mxCell id="bLYFY1r-CMGZMfWj51zT-19" value="" style="endArrow=none;html=1;rounded=0;exitX=0.5;exitY=0;exitDx=0;exitDy=0;" edge="1" parent="1" source="bLYFY1r-CMGZMfWj51zT-12">
          <mxGeometry relative="1" as="geometry">
            <mxPoint x="794" y="476" as="sourcePoint" />
            <mxPoint x="710" y="421" as="targetPoint" />
          </mxGeometry>
        </mxCell>
        <mxCell id="bLYFY1r-CMGZMfWj51zT-21" value="" style="edgeStyle=entityRelationEdgeStyle;fontSize=12;html=1;endArrow=ERmandOne;startArrow=ERmandOne;rounded=0;entryX=0;entryY=0.75;entryDx=0;entryDy=0;exitX=1;exitY=0.25;exitDx=0;exitDy=0;" edge="1" parent="1" source="bLYFY1r-CMGZMfWj51zT-7" target="bLYFY1r-CMGZMfWj51zT-2">
          <mxGeometry width="100" height="100" relative="1" as="geometry">
            <mxPoint x="545" y="415" as="sourcePoint" />
            <mxPoint x="615" y="400" as="targetPoint" />
          </mxGeometry>
        </mxCell>
        <mxCell id="bLYFY1r-CMGZMfWj51zT-22" value="" style="edgeStyle=entityRelationEdgeStyle;fontSize=12;html=1;endArrow=ERzeroToMany;endFill=1;rounded=0;exitX=1;exitY=0.75;exitDx=0;exitDy=0;entryX=0;entryY=0.25;entryDx=0;entryDy=0;" edge="1" parent="1" source="bLYFY1r-CMGZMfWj51zT-1" target="bLYFY1r-CMGZMfWj51zT-7">
          <mxGeometry width="100" height="100" relative="1" as="geometry">
            <mxPoint x="325" y="330" as="sourcePoint" />
            <mxPoint x="415" y="450" as="targetPoint" />
            <Array as="points">
              <mxPoint x="335" y="350" />
              <mxPoint x="415" y="370" />
              <mxPoint x="325" y="390" />
            </Array>
          </mxGeometry>
        </mxCell>
        <mxCell id="bLYFY1r-CMGZMfWj51zT-34" value="Has" style="shape=associativeEntity;whiteSpace=wrap;html=1;align=center;fillColor=#d5e8d4;strokeColor=#82b366;" vertex="1" parent="1">
          <mxGeometry x="495" y="420" width="90" height="50" as="geometry" />
        </mxCell>
        <mxCell id="bLYFY1r-CMGZMfWj51zT-36" value="FirstName" style="ellipse;whiteSpace=wrap;html=1;aspect=fixed;fillColor=#dae8fc;strokeColor=#6c8ebf;" vertex="1" parent="1">
          <mxGeometry x="85" y="140" width="70" height="70" as="geometry" />
        </mxCell>
        <mxCell id="bLYFY1r-CMGZMfWj51zT-37" value="LastName" style="ellipse;whiteSpace=wrap;html=1;aspect=fixed;fillColor=#dae8fc;strokeColor=#6c8ebf;" vertex="1" parent="1">
          <mxGeometry x="-5" y="170" width="70" height="70" as="geometry" />
        </mxCell>
        <mxCell id="bLYFY1r-CMGZMfWj51zT-38" value="Email" style="ellipse;whiteSpace=wrap;html=1;aspect=fixed;fillColor=#dae8fc;strokeColor=#6c8ebf;" vertex="1" parent="1">
          <mxGeometry x="-45" y="260" width="70" height="70" as="geometry" />
        </mxCell>
        <mxCell id="bLYFY1r-CMGZMfWj51zT-39" value="Password" style="ellipse;whiteSpace=wrap;html=1;aspect=fixed;fillColor=#dae8fc;strokeColor=#6c8ebf;" vertex="1" parent="1">
          <mxGeometry x="-45" y="360" width="70" height="70" as="geometry" />
        </mxCell>
        <mxCell id="bLYFY1r-CMGZMfWj51zT-23" value="Has" style="shape=associativeEntity;whiteSpace=wrap;html=1;align=center;fillColor=#d5e8d4;strokeColor=#82b366;" vertex="1" parent="1">
          <mxGeometry x="395" y="280" width="90" height="50" as="geometry" />
        </mxCell>
        <mxCell id="bLYFY1r-CMGZMfWj51zT-41" value="" style="endArrow=none;html=1;rounded=0;exitX=0.5;exitY=1;exitDx=0;exitDy=0;entryX=0.5;entryY=0;entryDx=0;entryDy=0;" edge="1" parent="1" source="bLYFY1r-CMGZMfWj51zT-36" target="bLYFY1r-CMGZMfWj51zT-1">
          <mxGeometry relative="1" as="geometry">
            <mxPoint x="185" y="400" as="sourcePoint" />
            <mxPoint x="345" y="400" as="targetPoint" />
          </mxGeometry>
        </mxCell>
        <mxCell id="bLYFY1r-CMGZMfWj51zT-42" value="" style="endArrow=none;html=1;rounded=0;exitX=1;exitY=1;exitDx=0;exitDy=0;entryX=0;entryY=0;entryDx=0;entryDy=0;" edge="1" parent="1" source="bLYFY1r-CMGZMfWj51zT-37" target="bLYFY1r-CMGZMfWj51zT-1">
          <mxGeometry relative="1" as="geometry">
            <mxPoint x="130" y="220" as="sourcePoint" />
            <mxPoint x="150" y="260" as="targetPoint" />
          </mxGeometry>
        </mxCell>
        <mxCell id="bLYFY1r-CMGZMfWj51zT-43" value="" style="endArrow=none;html=1;rounded=0;exitX=1;exitY=0.5;exitDx=0;exitDy=0;entryX=0;entryY=0.5;entryDx=0;entryDy=0;" edge="1" parent="1" source="bLYFY1r-CMGZMfWj51zT-38" target="bLYFY1r-CMGZMfWj51zT-1">
          <mxGeometry relative="1" as="geometry">
            <mxPoint x="65" y="240" as="sourcePoint" />
            <mxPoint x="95" y="260" as="targetPoint" />
          </mxGeometry>
        </mxCell>
        <mxCell id="bLYFY1r-CMGZMfWj51zT-44" value="" style="endArrow=none;html=1;rounded=0;exitX=1.005;exitY=0.419;exitDx=0;exitDy=0;entryX=0;entryY=1;entryDx=0;entryDy=0;exitPerimeter=0;" edge="1" parent="1" source="bLYFY1r-CMGZMfWj51zT-39" target="bLYFY1r-CMGZMfWj51zT-1">
          <mxGeometry relative="1" as="geometry">
            <mxPoint x="35" y="305" as="sourcePoint" />
            <mxPoint x="95" y="315" as="targetPoint" />
          </mxGeometry>
        </mxCell>
        <mxCell id="bLYFY1r-CMGZMfWj51zT-50" value="" style="edgeStyle=entityRelationEdgeStyle;fontSize=12;html=1;endArrow=ERzeroToMany;endFill=1;rounded=0;exitX=1;exitY=0.5;exitDx=0;exitDy=0;entryX=0.001;entryY=0.312;entryDx=0;entryDy=0;entryPerimeter=0;" edge="1" parent="1" source="bLYFY1r-CMGZMfWj51zT-23" target="bLYFY1r-CMGZMfWj51zT-2">
          <mxGeometry width="100" height="100" relative="1" as="geometry">
            <mxPoint x="495" y="360" as="sourcePoint" />
            <mxPoint x="595" y="260" as="targetPoint" />
          </mxGeometry>
        </mxCell>
        <mxCell id="bLYFY1r-CMGZMfWj51zT-51" value="" style="edgeStyle=entityRelationEdgeStyle;fontSize=12;html=1;endArrow=ERmany;rounded=0;entryX=1;entryY=0.5;entryDx=0;entryDy=0;exitX=0;exitY=0.5;exitDx=0;exitDy=0;" edge="1" parent="1" source="bLYFY1r-CMGZMfWj51zT-23" target="bLYFY1r-CMGZMfWj51zT-1">
          <mxGeometry width="100" height="100" relative="1" as="geometry">
            <mxPoint x="354.99999999999955" y="320" as="sourcePoint" />
            <mxPoint x="254.99999999999955" y="220" as="targetPoint" />
          </mxGeometry>
        </mxCell>
        <mxCell id="bLYFY1r-CMGZMfWj51zT-53" value="Updates" style="shape=rhombus;perimeter=rhombusPerimeter;whiteSpace=wrap;html=1;align=center;fillColor=#d5e8d4;strokeColor=#82b366;" vertex="1" parent="1">
          <mxGeometry x="195" y="380" width="120" height="60" as="geometry" />
        </mxCell>
        <mxCell id="bLYFY1r-CMGZMfWj51zT-54" value="HabitID" style="ellipse;whiteSpace=wrap;html=1;aspect=fixed;fillColor=#dae8fc;strokeColor=#6c8ebf;" vertex="1" parent="1">
          <mxGeometry x="540" y="190" width="70" height="70" as="geometry" />
        </mxCell>
        <mxCell id="bLYFY1r-CMGZMfWj51zT-55" value="" style="endArrow=none;html=1;rounded=0;exitX=0.822;exitY=0.875;exitDx=0;exitDy=0;entryX=0;entryY=0;entryDx=0;entryDy=0;exitPerimeter=0;" edge="1" parent="1" source="bLYFY1r-CMGZMfWj51zT-54" target="bLYFY1r-CMGZMfWj51zT-2">
          <mxGeometry relative="1" as="geometry">
            <mxPoint x="595" y="255" as="sourcePoint" />
            <mxPoint x="618" y="335" as="targetPoint" />
          </mxGeometry>
        </mxCell>
        <mxCell id="bLYFY1r-CMGZMfWj51zT-56" value="HabitID" style="ellipse;whiteSpace=wrap;html=1;aspect=fixed;fillColor=#dae8fc;strokeColor=#6c8ebf;" vertex="1" parent="1">
          <mxGeometry x="165" y="540" width="70" height="70" as="geometry" />
        </mxCell>
        <mxCell id="bLYFY1r-CMGZMfWj51zT-57" value="" style="endArrow=none;html=1;rounded=0;exitX=1;exitY=0.5;exitDx=0;exitDy=0;entryX=0.002;entryY=0.846;entryDx=0;entryDy=0;entryPerimeter=0;" edge="1" parent="1" source="bLYFY1r-CMGZMfWj51zT-56" target="bLYFY1r-CMGZMfWj51zT-7">
          <mxGeometry relative="1" as="geometry">
            <mxPoint x="210" y="595" as="sourcePoint" />
            <mxPoint x="270" y="650" as="targetPoint" />
          </mxGeometry>
        </mxCell>
        <mxCell id="bLYFY1r-CMGZMfWj51zT-58" value="Date" style="ellipse;whiteSpace=wrap;html=1;aspect=fixed;fillColor=#dae8fc;strokeColor=#6c8ebf;" vertex="1" parent="1">
          <mxGeometry x="235" y="625" width="70" height="70" as="geometry" />
        </mxCell>
        <mxCell id="bLYFY1r-CMGZMfWj51zT-59" value="" style="endArrow=none;html=1;rounded=0;exitX=0.705;exitY=0.057;exitDx=0;exitDy=0;entryX=0.073;entryY=1.009;entryDx=0;entryDy=0;entryPerimeter=0;exitPerimeter=0;" edge="1" parent="1" source="bLYFY1r-CMGZMfWj51zT-58" target="bLYFY1r-CMGZMfWj51zT-7">
          <mxGeometry relative="1" as="geometry">
            <mxPoint x="245" y="585" as="sourcePoint" />
            <mxPoint x="325" y="563" as="targetPoint" />
          </mxGeometry>
        </mxCell>
        <mxCell id="bLYFY1r-CMGZMfWj51zT-60" value="Value" style="ellipse;whiteSpace=wrap;html=1;aspect=fixed;fillColor=#dae8fc;strokeColor=#6c8ebf;" vertex="1" parent="1">
          <mxGeometry x="335" y="650" width="70" height="70" as="geometry" />
        </mxCell>
        <mxCell id="bLYFY1r-CMGZMfWj51zT-61" value="" style="endArrow=none;html=1;rounded=0;exitX=0.5;exitY=0;exitDx=0;exitDy=0;entryX=0.5;entryY=1;entryDx=0;entryDy=0;" edge="1" parent="1" source="bLYFY1r-CMGZMfWj51zT-60" target="bLYFY1r-CMGZMfWj51zT-7">
          <mxGeometry relative="1" as="geometry">
            <mxPoint x="294" y="639" as="sourcePoint" />
            <mxPoint x="333" y="581" as="targetPoint" />
          </mxGeometry>
        </mxCell>
      </root>
    </mxGraphModel>
  </diagram>
</mxfile>
